<svg width="220" height="55" viewBox="0 0 220 55" fill="none" xmlns="http://www.w3.org/2000/svg">
<path d="M85.024 27.6717C88.6117 26.645 90.4267 24.2542 90.4267 20.5556C90.4267 17.7991 89.3603 15.6404 87.2487 14.1356C85.1229 12.6097 82.1426 11.8433 78.3854 11.8433H65.8779V44.4986H78.9857C82.9618 44.4986 86.0975 43.6477 88.3151 41.9671C90.4832 40.3428 91.585 38.0434 91.585 35.1323C91.585 30.9766 89.3815 28.4733 85.024 27.6646V27.6717ZM73.1804 17.6374H78.569C81.6341 17.6374 83.1172 18.8609 83.1172 21.3853C83.1172 22.5244 82.7146 23.4456 81.9307 24.1136C81.1327 24.7887 80.0027 25.1332 78.569 25.1332H73.1804V17.6374ZM79.0351 38.6552H73.1875V30.8359H79.0351C82.4392 30.8359 84.0989 32.1368 84.0989 34.8159C84.0989 37.495 82.4463 38.6552 79.0351 38.6552Z" fill="#0C0E2D"/>
<path d="M101.055 23.6846L100.504 20.429H94.2471V44.5055H101.133V32.6993C101.133 28.6561 102.835 26.6942 106.331 26.6942H109.106V20.436H107.814C104.812 20.436 102.538 21.5329 101.055 23.6917V23.6846Z" fill="#0C0E2D"/>
<path d="M131.961 37.3543V28.9514C131.961 23.1081 128.359 20.1477 121.261 20.1477C118.083 20.1477 115.463 20.8579 113.464 22.2572C111.452 23.6987 110.308 25.6184 110.053 27.967L110.032 28.1639H116.685L116.706 28.0162C117.003 26.1598 118.429 25.2598 121.071 25.2598C123.712 25.2598 125.16 26.3497 125.16 28.5928V29.5702H120.604C117.031 29.5702 114.248 30.2804 112.341 31.6797C110.449 33.065 109.488 35.069 109.488 37.6356C109.488 39.8998 110.357 41.6859 112.059 42.9445C113.662 44.161 115.83 44.7798 118.514 44.7798C121.798 44.7798 124.355 43.5141 126.134 41.0108C126.205 41.9882 126.516 42.7687 127.074 43.3383C127.829 44.1118 129.051 44.5056 130.704 44.5056H134.221V38.6622H133.303C132.377 38.6622 131.947 38.2473 131.947 37.3613L131.961 37.3543ZM125.16 34.5416C125.131 36.1167 124.63 37.3824 123.684 38.2966C122.73 39.2458 121.417 39.724 119.778 39.724C117.525 39.724 116.431 38.8872 116.431 37.1785C116.431 35.2167 117.78 34.2604 120.562 34.2604H125.16V34.5416Z" fill="#0C0E2D"/>
<path d="M142.71 20.429H135.774V44.5056H142.71V20.429Z" fill="#0C0E2D"/>
<path d="M139.242 10.5493C138.119 10.5493 137.172 10.922 136.431 11.6603C135.654 12.3987 135.266 13.3268 135.266 14.4168C135.266 15.5067 135.661 16.4208 136.431 17.131C137.172 17.8693 138.119 18.242 139.242 18.242C140.365 18.242 141.311 17.8693 142.053 17.131C142.829 16.4208 143.225 15.5067 143.225 14.4168C143.225 13.3268 142.829 12.3987 142.06 11.6603C141.318 10.922 140.372 10.5493 139.249 10.5493H139.242Z" fill="#0C0E2D"/>
<path d="M159.652 20.1477C156.622 20.1477 154.179 21.1603 152.385 23.1643L151.827 20.4219H145.803V44.4985H152.689V32.186C152.689 27.9248 154.376 25.8575 157.844 25.8575C160.966 25.8575 162.491 27.8052 162.491 31.8204V44.5056H169.377V31.1734C169.377 23.8605 166.107 20.1547 159.652 20.1547V20.1477Z" fill="#0C0E2D"/>
<path d="M179.78 18.1507H194.244V11.8433H172.471V44.4986H179.78V31.3914H191.645V25.3653H179.78V18.1507Z" fill="#0C0E2D"/>
<path d="M211.017 32.2352L219.534 20.429H212.048L207.09 27.313L202.267 20.429H194.371L202.931 32.2352L193.947 44.4985H201.384L206.716 37.1926L212.048 44.4282L212.098 44.4985H220L211.017 32.2352Z" fill="#0C0E2D"/>
<path d="M54.945 28.0091C54.945 23.7619 51.9011 20.232 47.8685 19.4444C48.5324 18.2139 48.9137 16.8076 48.9137 15.3098C48.9137 11.2666 46.1453 7.87727 42.4022 6.8858C42.2539 11.5549 38.3979 15.3028 33.6802 15.3028V15.0777L33.9062 12.3283C36.9783 12.2088 39.4502 9.69146 39.4502 6.5975C39.4502 3.50354 36.8583 0.859619 33.6802 0.859619C30.255 0.859619 28.1857 3.81997 27.9032 6.73813C27.8537 7.26551 27.8043 7.82805 27.7478 8.41168C27.656 9.39612 27.5642 10.4509 27.4724 11.5689C27.2252 14.4308 26.9639 17.6725 26.7026 21.0125H33.1929L32.9457 23.9729H26.4625C26.3989 24.7534 26.3424 25.5339 26.2788 26.3144C25.8339 31.982 25.4102 37.3331 25.0641 41.2287C24.9935 42.0022 24.8664 42.7405 24.6827 43.4578C23.5245 47.9088 20.1911 51.1364 15.9678 51.8958C17.0695 53.6537 19.0187 54.821 21.2504 54.821C24.5909 54.821 27.3099 52.1982 27.4583 48.9144H27.4865C27.6419 52.2052 30.3609 54.821 33.6943 54.821C37.0278 54.821 39.6479 52.2966 39.8951 49.0972C39.9798 49.0972 40.0575 49.1113 40.1423 49.1113C44.9871 49.1113 48.9067 45.2016 48.9067 40.3849C48.9067 39.0067 48.5748 37.7058 48.0027 36.5526C51.9647 35.7158 54.9379 32.214 54.9379 28.0161L54.945 28.0091ZM43.3345 31.989C43.1367 31.9961 42.939 32.0101 42.7483 32.0383C40.8909 32.3266 39.662 33.5641 38.6451 36.1026L38.5038 36.4823L38.6239 37.1362C39.3513 40.3568 40.6225 40.9967 42.5717 40.9967V41.1654L42.3457 43.9359C39.1535 43.8515 37.5221 42.1428 36.6535 40.4693C35.4458 42.2553 33.9274 43.3453 32.0629 43.7601C31.4979 43.8867 30.8976 43.95 30.262 43.95L30.5092 40.9756C30.8199 40.9615 31.1166 40.9193 31.4061 40.856C33.0799 40.4833 34.2593 39.2387 35.2127 36.855L35.4387 36.2292L35.361 35.8213C35.1562 34.9002 34.8667 34.204 34.5348 33.6626C33.6308 32.2 32.3737 31.9609 31.279 31.9609V31.6374L31.4979 29.0076C33.3906 29.0568 35.6365 29.7248 37.1125 32.1859C37.1549 32.2562 37.1902 32.3336 37.2326 32.4039C37.3103 32.2844 37.395 32.1719 37.4798 32.0523C37.6634 31.8062 37.8682 31.5601 38.0801 31.328C39.3019 30.0131 41.0321 29.0216 43.5817 29.0005L43.3345 31.975V31.989Z" fill="#707BF3"/>
<path d="M22.1123 40.9616C22.197 39.9701 22.2959 38.8872 22.3877 37.727C22.6702 34.3307 22.988 30.2945 23.32 26.0755C23.3765 25.3723 23.433 24.6691 23.4894 23.9659H14.4214L14.6685 21.0056H23.7296C23.9697 17.989 24.2028 15.0568 24.4287 12.3917C24.6124 10.1838 24.7889 8.16567 24.9514 6.45696C25.0714 5.19125 25.4034 4.00992 25.9048 2.95517C24.7607 1.68243 23.101 0.873779 21.2507 0.873779C17.9526 0.873779 15.2547 3.42629 15.0429 6.66088C14.951 6.66088 14.8663 6.64682 14.7745 6.64682C9.9297 6.64682 6.01008 10.5565 6.01008 15.3732C6.01008 16.8709 6.39145 18.2773 7.05531 19.5078C3.02976 20.3024 0 23.8323 0 28.0654C0 31.3352 1.80797 34.183 4.48461 35.6808C6.35614 32.404 9.8732 30.182 13.9129 30.1328L13.6657 33.1001C9.41414 33.3041 6.01008 36.8059 6.01008 41.0952C6.01008 45.3845 9.61895 49.1043 14.0541 49.1043C18.4893 49.1043 21.6885 45.6799 22.1052 40.9616H22.1123Z" fill="#707BF3"/>
</svg>
